# xmcd CD database file
#
# Track frame offsets:
#	150
#	10982
#	30170
#	49492
#	79072
#	104360
#	137627
#	158197
#	177150
#	194502
#	211732
#	232002
#	250257
#	291872
#
# Disc length: 4419 seconds
#
# Revision: 1
# Processed by: cddbd v1.5.1PL0 Copyright (c) Steve Scherf et al.
# Submitted via: CDex 1.51
#
DISCID=be11410e
DTITLE=Lata Mangeshkar - In Concert Lata (Live On 9/3/97) Vol-2
DYEAR=0
DGENRE=Hindi
TTITLE0=Khamosh Hai Zamana
TTITLE1=Aaja Re Pardesi
TTITLE2=Naina Barse
TTITLE3=Aa Jaane Jaa
TTITLE4=Roja Jaaneman
TTITLE5=Didi Tera Dewar Deewana
TTITLE6=Aate Jaate
TTITLE7=Yeh Nayan Dare Dare
TTITLE8=Sultana Sultana
TTITLE9=Gore Gore
TTITLE10=Kasme Vaade
TTITLE11=Jai Jai Shiv Shankar
TTITLE12=Rasoo Allah/Yaara Seeli Seeli
TTITLE13=Aye Mere Watan Ke Logon
EXTD=YEAR: 0
EXTT0=
EXTT1=
EXTT2=
EXTT3=
EXTT4=
EXTT5=
EXTT6=
EXTT7=
EXTT8=
EXTT9=
EXTT10=
EXTT11=
EXTT12=
EXTT13=
PLAYORDER=
